<?xml version="1.0" encoding="UTF-8"?>
<svg width="36px" height="52px" viewBox="0 0 36 52" version="1.1" xmlns="http://www.w3.org/2000/svg" xmlns:xlink="http://www.w3.org/1999/xlink">
    <!-- Generator: Sketch 43.2 (39069) - http://www.bohemiancoding.com/sketch -->
    <title>user</title>
    <desc>Created with Sketch.</desc>
    <defs>
        <path d="M29.8743687,35.3033009 C32.8033009,32.3743687 32.8033009,27.6256313 29.8743687,24.6966991 C26.9454365,21.767767 22.1966991,21.767767 19.267767,24.6966991 L17.5,26.4644661 L15.732233,24.6966991 C12.8033009,21.767767 8.05456352,21.767767 5.12563133,24.6966991 C2.19669914,27.6256313 2.19669914,32.3743687 5.12563133,35.3033009 L17.5,47.6776695 L29.8743687,35.3033009 Z M3.35786438,22.9289322 C7.26310729,19.0236893 13.5947571,19.0236893 17.5,22.9289322 C21.4052429,19.0236893 27.7368927,19.0236893 31.6421356,22.9289322 C35.5473785,26.8341751 35.5473785,33.1658249 31.6421356,37.0710678 L17.5,51.2132034 L3.35786438,37.0710678 C-0.547378541,33.1658249 -0.547378541,26.8341751 3.35786438,22.9289322 Z M17.5,17.5 C21.6421356,17.5 25,14.1421356 25,10 C25,5.85786438 21.6421356,2.5 17.5,2.5 C13.3578644,2.5 10,5.85786438 10,10 C10,14.1421356 13.3578644,17.5 17.5,17.5 Z M17.5,20 C11.9771525,20 7.5,15.5228475 7.5,10 C7.5,4.4771525 11.9771525,0 17.5,0 C23.0228475,0 27.5,4.4771525 27.5,10 C27.5,15.5228475 23.0228475,20 17.5,20 Z" id="path-1"></path>
    </defs>
    <g id="Initial-Design" stroke="none" stroke-width="1" fill="none" fill-rule="evenodd">
        <g id="overview" transform="translate(-344.000000, -3215.000000)">
            <g id="list" transform="translate(0.000000, 3120.000000)">
                <g id="group_1" transform="translate(322.000000, 80.000000)">
                    <g id="icon/user">
                        <g id="icon">
                            <g transform="translate(22.500000, 15.000000)">
                                <mask id="mask-2" fill="white">
                                    <use xlink:href="#path-1"></use>
                                </mask>
                                <use id="user" fill="#979797" fill-rule="nonzero" xlink:href="#path-1"></use>
                                <g id="color/green" mask="url(#mask-2)" fill="#17C37B">
                                    <g transform="translate(-22.500000, -15.000000)">
                                        <rect x="0" y="0" width="80" height="80"></rect>
                                    </g>
                                </g>
                            </g>
                        </g>
                    </g>
                </g>
            </g>
        </g>
    </g>
</svg>