<?xml version="1.0" encoding="UTF-8"?>
<svg width="34px" height="49px" viewBox="0 0 34 49" version="1.1" xmlns="http://www.w3.org/2000/svg" xmlns:xlink="http://www.w3.org/1999/xlink">
    <!-- Generator: Sketch 43.2 (39069) - http://www.bohemiancoding.com/sketch -->
    <title>rocket</title>
    <desc>Created with Sketch.</desc>
    <defs>
        <path d="M10.7819789,32.5 C10.7855007,32.5116623 10.7890281,32.5233228 10.792561,32.5349815 C11.0656519,33.4361814 11.3542271,34.2614833 11.6438603,35 L23.3518597,35 C23.6423857,34.2609448 23.931871,33.4349557 24.2058086,32.5329582 C24.2091446,32.5219737 24.2124756,32.5109877 24.2158017,32.5 L10.7819789,32.5 Z M10.1206571,30 L24.878748,30 C25.8602127,25.6865338 26.0391925,21.1899003 25.0598173,16.7936067 C24.0385444,12.2092399 22.3076065,8.82736873 20.187079,6.54685011 C18.9052292,5.16828629 17.5535942,4.375 17.5,4.375 C17.445319,4.375 16.0925855,5.16822922 14.8103641,6.54655261 C12.6893318,8.82655556 10.959225,12.207918 9.94046765,16.7923261 C8.96327364,21.1896992 9.14167634,25.6866686 10.1206571,30 Z M6.85601877,20.8888559 C6.94597675,19.3833225 7.14911709,17.8289731 7.5,16.25 C10,5 16.2798322,1.875 17.5,1.875 C18.7201678,1.875 24.9942329,5.00192344 27.5,16.25 C27.8516207,17.8283814 28.0552183,19.3822248 28.1454117,20.887337 L33.7532245,25.6350902 L29.7349798,42.0035845 L27.5389838,42.0035845 C27.6264705,41.3481637 27.6716331,40.679356 27.6716331,40 C27.6716331,37.836881 27.2137598,35.7807041 26.3896454,33.9231014 C25.6629179,36.1654514 24.9942329,37.5 24.9942329,37.5 L10,37.5 C10,37.5 9.3342931,36.1685862 8.61014617,33.9308454 C7.78819323,35.786418 7.33159136,37.8398864 7.33159136,40 C7.33159136,40.679356 7.376754,41.3481637 7.46424072,42.0035845 L5.26824468,42.0035845 L1.25,25.6350902 L6.85601877,20.8888559 Z M7.66386973,30.4500025 C7.25498488,28.6064067 6.92811742,26.4842738 6.83014319,24.1864171 L4.04703081,26.5426888 L5.88197919,34.0174308 C6.33841473,32.7616297 6.93683803,31.5651859 7.66386973,30.4500025 Z M28.1714274,24.1850169 C28.0733213,26.4815384 27.7460366,28.6026658 27.3365422,30.4456898 C28.0648432,31.5621011 28.6642213,32.7600107 29.1212453,34.0174308 L30.9561937,26.5426888 L28.1714274,24.1850169 Z M16.25,40 L18.75,40 L18.75,50 L16.25,50 L16.25,40 Z M21.25,40 L23.75,40 L23.75,45 L21.25,45 L21.25,40 Z M11.25,40 L13.75,40 L13.75,45 L11.25,45 L11.25,40 Z M17.5,22.5 C14.7385763,22.5 12.5,20.2614237 12.5,17.5 C12.5,14.7385763 14.7385763,12.5 17.5,12.5 C20.2614237,12.5 22.5,14.7385763 22.5,17.5 C22.5,20.2614237 20.2614237,22.5 17.5,22.5 Z M17.5,20 C18.8807119,20 20,18.8807119 20,17.5 C20,16.1192881 18.8807119,15 17.5,15 C16.1192881,15 15,16.1192881 15,17.5 C15,18.8807119 16.1192881,20 17.5,20 Z" id="path-1"></path>
    </defs>
    <g id="Initial-Design" stroke="none" stroke-width="1" fill="none" fill-rule="evenodd">
        <g id="overview" transform="translate(-865.000000, -3494.000000)">
            <g id="list" transform="translate(0.000000, 3120.000000)">
                <g id="group_5-copy" transform="translate(842.000000, 360.000000)">
                    <g id="icon/rocket">
                        <g id="icon">
                            <g transform="translate(22.500000, 12.500000)">
                                <mask id="mask-2" fill="white">
                                    <use xlink:href="#path-1"></use>
                                </mask>
                                <g id="rocket" fill-rule="nonzero"></g>
                                <g id="color/green" mask="url(#mask-2)" fill="#17C37B">
                                    <g transform="translate(-22.500000, -12.500000)">
                                        <rect x="0" y="0" width="80" height="80"></rect>
                                    </g>
                                </g>
                            </g>
                        </g>
                    </g>
                </g>
            </g>
        </g>
    </g>
</svg>