<?xml version="1.0" encoding="UTF-8"?>
<svg width="28px" height="28px" viewBox="0 0 28 28" version="1.1" xmlns="http://www.w3.org/2000/svg" xmlns:xlink="http://www.w3.org/1999/xlink">
    <!-- Generator: Sketch 42 (36781) - http://www.bohemiancoding.com/sketch -->
    <title>android</title>
    <desc>Created with Sketch.</desc>
    <defs></defs>
    <g id="Page-1" stroke="none" stroke-width="1" fill="none" fill-rule="evenodd" fill-opacity="0.1">
        <g id="diccce_home" transform="translate(-864.000000, -1008.000000)" fill="#F4F4F4">
            <g id="car2go" transform="translate(220.000000, 957.000000)">
                <g id="platforms" transform="translate(616.000000, 51.000000)">
                    <g id="android" transform="translate(28.000000, 0.000000)">
                        <path d="M10.4,16.5 C10.4,16.8208333 10.67,17.0833333 11,17.0833333 L11.6,17.0833333 L11.6,19.125 C11.6,19.6091667 12.002,20 12.5,20 C12.998,20 13.4,19.6091667 13.4,19.125 L13.4,17.0833333 L14.6,17.0833333 L14.6,19.125 C14.6,19.6091667 15.002,20 15.5,20 C15.998,20 16.4,19.6091667 16.4,19.125 L16.4,17.0833333 L17,17.0833333 C17.33,17.0833333 17.6,16.8208333 17.6,16.5 L17.6,10.6666667 L10.4,10.6666667 L10.4,16.5 Z M8.9,10.6666667 C8.402,10.6666667 8,11.0575 8,11.5416667 L8,15.625 C8,16.1091667 8.402,16.5 8.9,16.5 C9.398,16.5 9.8,16.1091667 9.8,15.625 L9.8,11.5416667 C9.8,11.0575 9.398,10.6666667 8.9,10.6666667 Z M19.1,10.6666667 C18.602,10.6666667 18.2,11.0575 18.2,11.5416667 L18.2,15.625 C18.2,16.1091667 18.602,16.5 19.1,16.5 C19.598,16.5 20,16.1091667 20,15.625 L20,11.5416667 C20,11.0575 19.598,10.6666667 19.1,10.6666667 Z M16.118,7.26 L16.901,6.49875 C17.018,6.385 17.018,6.20125 16.901,6.0875 C16.784,5.97375 16.595,5.97375 16.478,6.0875 L15.59,6.94791667 C15.11,6.7175 14.573,6.58333333 14,6.58333333 C13.424,6.58333333 12.884,6.7175 12.401,6.95083333 L11.51,6.08458333 C11.393,5.97083333 11.204,5.97083333 11.087,6.08458333 C10.97,6.19833333 10.97,6.38208333 11.087,6.49583333 L11.873,7.26 C10.982,7.89875 10.4,8.92541667 10.4,10.0833333 L17.6,10.0833333 C17.6,8.9225 17.015,7.89583333 16.118,7.26 Z M12.8,8.91666667 L12.2,8.91666667 L12.2,8.33333333 L12.8,8.33333333 L12.8,8.91666667 Z M15.8,8.91666667 L15.2,8.91666667 L15.2,8.33333333 L15.8,8.33333333 L15.8,8.91666667 Z" id="Fill-1"></path>
                    </g>
                </g>
            </g>
        </g>
    </g>
</svg>