<?xml version="1.0" encoding="UTF-8"?>
<svg width="28px" height="28px" viewBox="0 0 28 28" version="1.1" xmlns="http://www.w3.org/2000/svg" xmlns:xlink="http://www.w3.org/1999/xlink">
    <!-- Generator: Sketch 42 (36781) - http://www.bohemiancoding.com/sketch -->
    <title>ios</title>
    <desc>Created with Sketch.</desc>
    <defs></defs>
    <g id="Page-1" stroke="none" stroke-width="1" fill="none" fill-rule="evenodd" fill-opacity="0.1">
        <g id="diccce_home" transform="translate(-836.000000, -1008.000000)" fill="#F4F4F4">
            <g id="car2go" transform="translate(220.000000, 957.000000)">
                <g id="platforms" transform="translate(616.000000, 51.000000)">
                    <g id="ios">
                        <path d="M19.7484978,16.910249 C19.53305,17.39937 19.2780303,17.8496032 18.9825591,18.2635413 C18.5798038,18.8278451 18.2500369,19.2184514 17.9958965,19.4353576 C17.601935,19.7913958 17.1798333,19.973736 16.7278328,19.9841069 C16.4033422,19.9841069 16.0120188,19.8933687 15.5565007,19.7093012 C15.0994869,19.5260973 14.6794957,19.4353593 14.2954712,19.4353593 C13.892715,19.4353593 13.4607651,19.5260973 12.9987388,19.7093012 C12.5360099,19.8933701 12.1632414,19.9892931 11.8782348,19.9987991 C11.4447892,20.0169472 11.0127505,19.8294209 10.5815034,19.4353593 C10.3062579,19.1994405 9.96198212,18.7950075 9.54955276,18.2220628 C9.10704952,17.6102295 8.74325066,16.9007457 8.45824411,16.0918806 C8.15301185,15.2182034 8,14.3721797 8,13.5531181 C8,12.6148873 8.20630218,11.8056773 8.61952211,11.1275604 C8.94427657,10.5828732 9.3763152,10.1532073 9.91704501,9.83778473 C10.4577757,9.52236221 11.0420338,9.36162635 11.6712291,9.35134271 C12.0155058,9.35134271 12.4669796,9.45599385 13.0280221,9.66166662 C13.5874827,9.86803073 13.9467088,9.97268187 14.1042055,9.97268187 C14.2219542,9.97268187 14.6210162,9.85031521 15.297522,9.60635966 C15.9372716,9.38011961 16.47721,9.28644344 16.9195373,9.32334356 C18.1181301,9.4184024 19.0186137,9.88272164 19.6174704,10.7192395 C18.5455081,11.3575164 18.0152429,12.2515033 18.0257954,13.398345 C18.0354686,14.2916389 18.3652355,15.0349991 19.0133374,15.6252281 C19.3070498,15.8991704 19.6350579,16.1108923 20,16.2612581 C19.9208559,16.4868068 19.837315,16.7028497 19.7484978,16.9102508 L19.7484978,16.910249 Z M16.9995608,6.28007792 C16.9995608,6.98023814 16.7392647,7.63397509 16.2204314,8.23906783 C15.594314,8.95840402 14.8369924,9.37407041 14.0157409,9.30847981 C14.0052763,9.22448236 13.9992086,9.13607764 13.9992086,9.04317922 C13.9992086,8.37102679 14.2969661,7.6516906 14.8257364,7.06353562 C15.0897258,6.76574219 15.4254733,6.51813118 15.8326256,6.32060755 C16.2388984,6.12603074 16.6231868,6.01842413 16.9846113,6 C16.9951639,6.09359839 16.9995608,6.18720543 16.9995608,6.28006928 L16.9995608,6.28007792 Z" id="Page-1"></path>
                    </g>
                </g>
            </g>
        </g>
    </g>
</svg>