<?xml version="1.0" encoding="UTF-8"?>
<svg width="44px" height="44px" viewBox="0 0 44 44" version="1.1" xmlns="http://www.w3.org/2000/svg" xmlns:xlink="http://www.w3.org/1999/xlink">
    <!-- Generator: Sketch 43.2 (39069) - http://www.bohemiancoding.com/sketch -->
    <title>design</title>
    <desc>Created with Sketch.</desc>
    <defs>
        <path d="M36.9454365,25.7398539 L34.4839741,23.2783915 C35.9122133,29.037296 34.3756781,35.38068 29.8743687,39.8819895 C23.0401936,46.7161646 11.9598064,46.7161646 5.12563133,39.8819895 C-1.70854378,33.0478144 -1.70854378,21.9674273 5.12563133,15.1332521 C9.62694077,10.6319427 15.9703248,9.09540756 21.7292293,10.5236467 L19.267767,8.06218434 L18.3838835,8.94606781 L14.8483496,5.41053391 L18.3838835,1.875 L21.9194174,5.41053391 L21.0355339,6.29441738 L26.4502195,11.709103 C28.3676015,10.5766853 30.8786022,10.8341848 32.5260191,12.4816017 C34.173436,14.1290186 34.4309355,16.6400194 33.2985178,18.5574013 L38.7132034,23.9720869 L39.5970869,23.0882034 L43.1326208,26.6237373 L39.5970869,30.1592712 L36.061553,26.6237373 L36.9454365,25.7398539 L36.9454365,25.7398539 Z M24.347834,14.1573993 C18.707654,11.2627231 11.6171544,12.177263 6.89339828,16.9010191 C1.03553391,22.7588835 1.03553391,32.2563582 6.89339828,38.1142225 C12.7512627,43.9720869 22.2487373,43.9720869 28.1066017,38.1142225 C32.8303578,33.3904664 33.7448978,26.2999668 30.8502215,20.6597868 C29.0490798,21.3802942 26.9135368,21.0112551 25.4549513,19.5526695 C23.9963657,18.094084 23.6273267,15.9585411 24.347834,14.1573993 L24.347834,14.1573993 Z M30.7582521,17.7849026 C31.7345629,16.8085918 31.7345629,15.2256794 30.7582521,14.2493687 C29.7819414,13.2730579 28.199029,13.2730579 27.2227182,14.2493687 C26.2464075,15.2256794 26.2464075,16.8085918 27.2227182,17.7849026 C28.199029,18.7612133 29.7819414,18.7612133 30.7582521,17.7849026 Z" id="path-1"></path>
    </defs>
    <g id="Initial-Design" stroke="none" stroke-width="1" fill="none" fill-rule="evenodd">
        <g id="overview" transform="translate(-342.000000, -3496.000000)">
            <g id="list" transform="translate(0.000000, 3120.000000)">
                <g id="group_4" transform="translate(322.000000, 360.000000)">
                    <g id="icon/build">
                        <g id="icon">
                            <g transform="translate(20.000000, 15.000000)">
                                <mask id="mask-2" fill="white">
                                    <use xlink:href="#path-1"></use>
                                </mask>
                                <g id="Combined-Shape"></g>
                                <g id="color/green" mask="url(#mask-2)" fill="#17C37B">
                                    <g transform="translate(-20.000000, -15.000000)">
                                        <rect x="0" y="0" width="80" height="80"></rect>
                                    </g>
                                </g>
                            </g>
                        </g>
                    </g>
                </g>
            </g>
        </g>
    </g>
</svg>