<?xml version="1.0" encoding="UTF-8"?>
<svg width="32px" height="32px" viewBox="0 0 32 32" version="1.1" xmlns="http://www.w3.org/2000/svg" xmlns:xlink="http://www.w3.org/1999/xlink">
    <!-- Generator: Sketch 43.2 (39069) - http://www.bohemiancoding.com/sketch -->
    <title>bulb</title>
    <desc>Created with Sketch.</desc>
    <defs>
        <path d="M4,10.5839563 L4,13 L8,13 L8,10.5839563 C9.76590478,9.81239969 11,8.05031904 11,6 C11,3.23857625 8.76142375,1 6,1 C3.23857625,1 1,3.23857625 1,6 C1,8.05031904 2.23409522,9.81239969 4,10.5839563 Z M9,11.1973068 L9,14 L3,14 L3,11.1973068 C1.20659589,10.1598786 0,8.22084707 0,6 C0,2.6862915 2.6862915,0 6,0 C9.3137085,0 12,2.6862915 12,6 C12,8.22084707 10.7934041,10.1598786 9,11.1973068 Z M4,15 C4,16.1045695 4.8954305,17 6,17 C7.1045695,17 8,16.1045695 8,15 L7,15 C7,15.5522847 6.55228475,16 6,16 C5.44771525,16 5,15.5522847 5,15 L4,15 Z" id="path-1"></path>
    </defs>
    <g id="Symbols" stroke="none" stroke-width="1" fill="none" fill-rule="evenodd">
        <g id="icon/bulb">
            <g id="icon">
                <g transform="translate(10.000000, 7.000000)">
                    <mask id="mask-2" fill="white">
                        <use xlink:href="#path-1"></use>
                    </mask>
                    <g id="Combined-Shape" fill-rule="nonzero"></g>
                    <g id="color/green" mask="url(#mask-2)" fill="#17C37B">
                        <g transform="translate(-10.000000, -7.000000)">
                            <rect x="0" y="0" width="32" height="32"></rect>
                        </g>
                    </g>
                </g>
            </g>
        </g>
    </g>
</svg>