<?xml version="1.0" encoding="UTF-8"?>
<svg width="32px" height="32px" viewBox="0 0 32 32" version="1.1" xmlns="http://www.w3.org/2000/svg" xmlns:xlink="http://www.w3.org/1999/xlink">
    <!-- Generator: Sketch 43.2 (39069) - http://www.bohemiancoding.com/sketch -->
    <title>user</title>
    <desc>Created with Sketch.</desc>
    <defs>
        <path d="M11.9497475,14.1213203 C13.1213203,12.9497475 13.1213203,11.0502525 11.9497475,9.87867966 C10.7781746,8.70710678 8.87867966,8.70710678 7.70710678,9.87867966 L7,10.5857864 L6.29289322,9.87867966 C5.12132034,8.70710678 3.22182541,8.70710678 2.05025253,9.87867966 C0.878679657,11.0502525 0.878679657,12.9497475 2.05025253,14.1213203 L7,19.0710678 L11.9497475,14.1213203 Z M1.34314575,9.17157288 C2.90524292,7.60947571 5.43790283,7.60947571 7,9.17157288 C8.56209717,7.60947571 11.0947571,7.60947571 12.6568542,9.17157288 C14.2189514,10.73367 14.2189514,13.26633 12.6568542,14.8284271 L7,20.4852814 L1.34314575,14.8284271 C-0.218951416,13.26633 -0.218951416,10.73367 1.34314575,9.17157288 Z M7,7 C8.65685425,7 10,5.65685425 10,4 C10,2.34314575 8.65685425,1 7,1 C5.34314575,1 4,2.34314575 4,4 C4,5.65685425 5.34314575,7 7,7 Z M7,8 C4.790861,8 3,6.209139 3,4 C3,1.790861 4.790861,0 7,0 C9.209139,0 11,1.790861 11,4 C11,6.209139 9.209139,8 7,8 Z" id="path-1"></path>
    </defs>
    <g id="Symbols" stroke="none" stroke-width="1" fill="none" fill-rule="evenodd">
        <g id="icon/user">
            <g id="icon">
                <g transform="translate(9.000000, 6.000000)">
                    <mask id="mask-2" fill="white">
                        <use xlink:href="#path-1"></use>
                    </mask>
                    <use id="user" fill="#979797" fill-rule="nonzero" xlink:href="#path-1"></use>
                    <g id="color/green" mask="url(#mask-2)" fill="#17C37B">
                        <g transform="translate(-9.000000, -6.000000)">
                            <rect x="0" y="0" width="32" height="32"></rect>
                        </g>
                    </g>
                </g>
            </g>
        </g>
    </g>
</svg>