<?xml version="1.0" encoding="UTF-8"?>
<svg width="32px" height="32px" viewBox="0 0 32 32" version="1.1" xmlns="http://www.w3.org/2000/svg" xmlns:xlink="http://www.w3.org/1999/xlink">
    <!-- Generator: Sketch 43.2 (39069) - http://www.bohemiancoding.com/sketch -->
    <title>build</title>
    <desc>Created with Sketch.</desc>
    <defs>
        <path d="M14.7781746,10.2959415 L13.7935896,9.3113566 C14.3648853,11.6149184 13.7502712,14.152272 11.9497475,15.9527958 C9.21607743,18.6864658 4.78392257,18.6864658 2.05025253,15.9527958 C-0.683417511,13.2191258 -0.683417511,8.7869709 2.05025253,6.05330086 C3.85077631,4.25277708 6.38812992,3.63816302 8.69169173,4.20945868 L7.70710678,3.22487373 L7.35355339,3.57842712 L5.93933983,2.16421356 L7.35355339,0.75 L8.76776695,2.16421356 L8.41421356,2.51776695 L10.5800878,4.68364121 C11.3470406,4.23067411 12.3514409,4.33367394 13.0104076,4.99264069 C13.6693744,5.65160744 13.7723742,6.65600775 13.3194071,7.42296051 L15.4852814,9.58883476 L15.8388348,9.23528137 L17.2530483,10.6494949 L15.8388348,12.0637085 L14.4246212,10.6494949 L14.7781746,10.2959415 L14.7781746,10.2959415 Z M9.73913361,5.66295974 C7.48306162,4.50508922 4.64686176,4.87090519 2.75735931,6.76040764 C0.414213562,9.10355339 0.414213562,12.9025433 2.75735931,15.245689 C5.10050506,17.5888348 8.89949494,17.5888348 11.2426407,15.245689 C13.1321431,13.3561866 13.4979591,10.5199867 12.3400886,8.26391472 C11.6196319,8.55211767 10.7654147,8.40450203 10.1819805,7.82106781 C9.5985463,7.23763359 9.45093066,6.38341642 9.73913361,5.66295974 L9.73913361,5.66295974 Z M12.3033009,7.11396103 C12.6938252,6.72343674 12.6938252,6.09027176 12.3033009,5.69974747 C11.9127766,5.30922318 11.2796116,5.30922318 10.8890873,5.69974747 C10.498563,6.09027176 10.498563,6.72343674 10.8890873,7.11396103 C11.2796116,7.50448532 11.9127766,7.50448532 12.3033009,7.11396103 Z" id="path-1"></path>
    </defs>
    <g id="Symbols" stroke="none" stroke-width="1" fill="none" fill-rule="evenodd">
        <g id="icon/build">
            <g id="icon">
                <g transform="translate(8.000000, 6.000000)">
                    <mask id="mask-2" fill="white">
                        <use xlink:href="#path-1"></use>
                    </mask>
                    <g id="Combined-Shape"></g>
                    <g id="color/green" mask="url(#mask-2)" fill="#17C37B">
                        <g transform="translate(-8.000000, -6.000000)">
                            <rect x="0" y="0" width="32" height="32"></rect>
                        </g>
                    </g>
                </g>
            </g>
        </g>
    </g>
</svg>