<?xml version="1.0" encoding="UTF-8"?>
<svg width="32px" height="32px" viewBox="0 0 32 32" version="1.1" xmlns="http://www.w3.org/2000/svg" xmlns:xlink="http://www.w3.org/1999/xlink">
    <!-- Generator: Sketch 43.2 (39069) - http://www.bohemiancoding.com/sketch -->
    <title>paper</title>
    <desc>Created with Sketch.</desc>
    <defs>
        <path d="M13.5,11.5 L13.5,13 L10.5,16 L9,16 L0.5,16 L0.5,0 L13.5,0 L13.5,11.5 Z M9.5,15 L9.5,12 L12.5,12 L12.5,1 L1.5,1 L1.5,15 L9.5,15 Z M10.5,13 L10.5,14.5857864 L12.0857864,13 L10.5,13 Z M3.5,3.5 L10.5,3.5 L10.5,4.5 L3.5,4.5 L3.5,3.5 Z M3.5,9.5 L9.5,9.5 L9.5,10.5 L3.5,10.5 L3.5,9.5 Z M3.5,6.5 L8.5,6.5 L8.5,7.5 L3.5,7.5 L3.5,6.5 Z" id="path-1"></path>
    </defs>
    <g id="Symbols" stroke="none" stroke-width="1" fill="none" fill-rule="evenodd">
        <g id="icon/paper">
            <g id="icon">
                <g transform="translate(9.000000, 8.000000)">
                    <mask id="mask-2" fill="white">
                        <use xlink:href="#path-1"></use>
                    </mask>
                    <g id="paper" fill-rule="nonzero"></g>
                    <g id="color/green" mask="url(#mask-2)" fill="#17C37B">
                        <g transform="translate(-9.000000, -8.000000)">
                            <rect x="0" y="0" width="32" height="32"></rect>
                        </g>
                    </g>
                </g>
            </g>
        </g>
    </g>
</svg>