<?xml version="1.0" encoding="UTF-8"?>
<svg width="32px" height="32px" viewBox="0 0 32 32" version="1.1" xmlns="http://www.w3.org/2000/svg" xmlns:xlink="http://www.w3.org/1999/xlink">
    <!-- Generator: Sketch 43.2 (39069) - http://www.bohemiancoding.com/sketch -->
    <title>rocket</title>
    <desc>Created with Sketch.</desc>
    <defs>
        <path d="M4.31279154,13 C4.31420028,13.0046649 4.31561123,13.0093291 4.3170244,13.0139926 C4.42626075,13.3744725 4.54169083,13.7045933 4.65754412,14 L9.34074388,14 C9.45695426,13.7043779 9.57274841,13.3739823 9.68232343,13.0131833 C9.68365783,13.0087895 9.68499025,13.0043951 9.68632069,13 L4.31279154,13 Z M4.04826286,12 L9.95149921,12 C10.3440851,10.2746135 10.415677,8.4759601 10.0239269,6.71744268 C9.61541776,4.88369597 8.92304258,3.53094749 8.07483162,2.61874004 C7.56209169,2.06731452 7.02143766,1.75 7,1.75 C6.97812761,1.75 6.43703419,2.06729169 5.92414565,2.61862104 C5.07573273,3.53062223 4.38369,4.88316721 3.97618706,6.71693046 C3.58530946,8.47587967 3.65667054,10.2746674 4.04826286,12 Z M2.74240751,8.35554236 C2.7783907,7.75332899 2.85964683,7.13158925 3,6.5 C4,2 6.51193286,0.75 7,0.75 C7.48806714,0.75 9.99769315,2.00076937 11,6.5 C11.1406483,7.13135257 11.2220873,7.75288994 11.2581647,8.35493479 L13.5012898,10.2540361 L11.8939919,16.8014338 L11.0155935,16.8014338 C11.0505882,16.5392655 11.0686533,16.2717424 11.0686533,16 C11.0686533,15.1347524 10.8855039,14.3122816 10.5558581,13.5692405 C10.2651671,14.4661806 9.99769315,15 9.99769315,15 L4,15 C4,15 3.73371724,14.4674345 3.44405847,13.5723382 C3.11527729,14.3145672 2.93263654,15.1359546 2.93263654,16 C2.93263654,16.2717424 2.9507016,16.5392655 2.98569629,16.8014338 L2.10729787,16.8014338 L0.5,10.2540361 L2.74240751,8.35554236 Z M3.06554789,12.180001 C2.90199395,11.4425627 2.77124697,10.5937095 2.73205728,9.67456683 L1.61881232,10.6170755 L2.35279168,13.6069723 C2.53536589,13.1046519 2.77473521,12.6260744 3.06554789,12.180001 Z M11.268571,9.67400675 C11.2293285,10.5926154 11.0984146,11.4410663 10.9346169,12.1782759 C11.2259373,12.6248404 11.4656885,13.1040043 11.6484981,13.6069723 L12.3824775,10.6170755 L11.268571,9.67400675 Z M6.5,16 L7.5,16 L7.5,20 L6.5,20 L6.5,16 Z M8.5,16 L9.5,16 L9.5,18 L8.5,18 L8.5,16 Z M4.5,16 L5.5,16 L5.5,18 L4.5,18 L4.5,16 Z M7,9 C5.8954305,9 5,8.1045695 5,7 C5,5.8954305 5.8954305,5 7,5 C8.1045695,5 9,5.8954305 9,7 C9,8.1045695 8.1045695,9 7,9 Z M7,8 C7.55228475,8 8,7.55228475 8,7 C8,6.44771525 7.55228475,6 7,6 C6.44771525,6 6,6.44771525 6,7 C6,7.55228475 6.44771525,8 7,8 Z" id="path-1"></path>
    </defs>
    <g id="Symbols" stroke="none" stroke-width="1" fill="none" fill-rule="evenodd">
        <g id="icon/rocket">
            <g id="icon">
                <g transform="translate(9.000000, 5.000000)">
                    <mask id="mask-2" fill="white">
                        <use xlink:href="#path-1"></use>
                    </mask>
                    <g id="rocket" fill-rule="nonzero"></g>
                    <g id="color/green" mask="url(#mask-2)" fill="#17C37B">
                        <g transform="translate(-9.000000, -5.000000)">
                            <rect x="0" y="0" width="32" height="32"></rect>
                        </g>
                    </g>
                </g>
            </g>
        </g>
    </g>
</svg>